<svg width="44" height="44" viewBox="0 0 44 44" fill="none" xmlns="http://www.w3.org/2000/svg">
<circle cx="22" cy="22" r="16.5" stroke="#2C3E50" stroke-width="2.75" stroke-linecap="round" stroke-linejoin="round"/>
<path d="M16.5 16.5H16.5184" stroke="#2C3E50" stroke-width="2.75" stroke-linecap="round" stroke-linejoin="round"/>
<path d="M27.5 16.5H27.5184" stroke="#2C3E50" stroke-width="2.75" stroke-linecap="round" stroke-linejoin="round"/>
<path d="M16.0416 23.8334C16.0416 23.074 15.426 22.4584 14.6666 22.4584C13.9072 22.4584 13.2916 23.074 13.2916 23.8334H16.0416ZM30.7083 23.8334C30.7083 23.074 30.0927 22.4584 29.3333 22.4584C28.5739 22.4584 27.9583 23.074 27.9583 23.8334H30.7083ZM29.3333 25.2084C30.0927 25.2084 30.7083 24.5927 30.7083 23.8334C30.7083 23.074 30.0927 22.4584 29.3333 22.4584V25.2084ZM14.6666 22.4584C13.9072 22.4584 13.2916 23.074 13.2916 23.8334C13.2916 24.5927 13.9072 25.2084 14.6666 25.2084V22.4584ZM13.2916 23.8334C13.2916 28.6428 17.1905 32.5417 22 32.5417V29.7917C18.7093 29.7917 16.0416 27.1241 16.0416 23.8334H13.2916ZM22 32.5417C26.8094 32.5417 30.7083 28.6428 30.7083 23.8334H27.9583C27.9583 27.1241 25.2907 29.7917 22 29.7917V32.5417ZM29.3333 22.4584H14.6666V25.2084H29.3333V22.4584Z" fill="#2C3E50"/>
</svg>
